<?xml version="1.0" encoding="utf-8"?>
<!-- Generator: Adobe Illustrator 21.0.2, SVG Export Plug-In . SVG Version: 6.00 Build 0)  -->
<svg version="1.1" id="Calque_1" xmlns="http://www.w3.org/2000/svg" xmlns:xlink="http://www.w3.org/1999/xlink" x="0px" y="0px"
	 viewBox="0 0 63.9 63.9" style="enable-background:new 0 0 63.9 63.9;" xml:space="preserve">
<style type="text/css">
	.st0{fill:#009482;}
</style>
<g>
	<path class="st0" d="M44.9,8.7c-1-4.8-5.3-8.5-10.4-8.5c-5.8,0-10.6,4.7-10.6,10.6c0,0.8,0.1,1.5,0.2,2.2l2.6-0.6
		c-0.1-0.5-0.2-1.1-0.2-1.7c0-4.4,3.6-7.9,7.9-7.9c3.5,0,6.4,2.2,7.5,5.3c-0.3,0-0.6,0-0.9,0c-7.3,0-13.2,5.9-13.2,13.2
		c0,5.3,3.2,10,7.9,12.1v30.2h5.7l4.9-3.3V51l-1.8-1.3l1.8-1.3v-4l-1.8-1.3l1.8-1.3v-8.4c4.8-2.1,7.9-6.8,7.9-12.1
		C54.4,15.4,50.4,10.4,44.9,8.7z M43.8,17.5c0,1.5-1.2,2.6-2.6,2.6c-0.4,0-0.8-0.1-1.1-0.2c1.4-0.9,2.6-2.1,3.5-3.5
		C43.7,16.7,43.8,17.1,43.8,17.5z M44.7,31.4l-0.9,0.3v8.9l-3.5,2.6l3.5,2.6v1.3l-3.5,2.6l3.5,2.6v6.6l-3,2h-2.2V31.7l-0.9-0.3
		c-4.2-1.5-7.1-5.5-7.1-10c0-5.8,4.7-10.6,10.6-10.6c0.4,0,0.9,0,1.3,0.1c0,0.9-0.2,1.8-0.5,2.7c-0.6,1.7-1.9,3.2-3.5,4.1
		c0-0.1,0-0.2,0-0.3c0-0.6,0.2-1.1,0.5-1.6l-2.1-1.6c-0.7,0.9-1.1,2-1.1,3.2c0,2.9,2.4,5.3,5.3,5.3c2.9,0,5.3-2.4,5.3-5.3
		c0-1.5-0.6-2.9-1.7-3.9c0.2-0.6,0.3-1.3,0.3-2c3.9,1.6,6.6,5.4,6.6,9.8C51.7,25.9,48.9,29.9,44.7,31.4z"/>
	<path class="st0" d="M28.3,35.4l-4.4,4.4l-4.4-0.6l0.6,4.4l-0.9,0.9l-4.4-0.6l0.6,4.4L12.7,51l-3.6-0.7l-1.6-1.6l17.1-17.1
		l-0.4-0.8c-1.9-4-1.1-8.9,2.1-12l-1.9-1.9c-3.7,3.7-4.9,9.3-3,14.2L3.7,48.7l4,4l5.8,1.2l4.7-4.7L17.9,47l2.2,0.3l2.8-2.8l-0.3-2.2
		l2.2,0.3l4.1-4.1c1.2,0.5,2.4,0.8,3.7,0.9l0.2-2.6c-1.3-0.1-2.5-0.4-3.6-1L28.3,35.4z"/>
</g>
</svg>
