<?xml version="1.0" standalone="no"?>
<!DOCTYPE svg PUBLIC "-//W3C//DTD SVG 20010904//EN"
 "http://www.w3.org/TR/2001/REC-SVG-20010904/DTD/svg10.dtd">
<svg version="1.0" xmlns="http://www.w3.org/2000/svg"
 width="700.000000pt" height="700.000000pt" viewBox="0 0 700.000000 700.000000"
 preserveAspectRatio="xMidYMid meet">
<g transform="translate(0.000000,700.000000) scale(0.100000,-0.100000)"
fill="#000000" stroke="none">
<path d="M0 3500 l0 -3500 3500 0 3500 0 0 3500 0 3500 -3500 0 -3500 0 0
-3500z m4149 1359 c52 -10 98 -19 103 -19 4 0 8 -85 8 -190 0 -104 -3 -190 -7
-190 -5 0 -41 9 -82 20 -83 22 -212 26 -276 9 -25 -7 -56 -27 -81 -53 -52 -54
-74 -129 -74 -249 l0 -87 260 0 260 0 0 -185 0 -185 -255 0 -255 0 0 -785 0
-785 -230 0 -230 0 0 785 0 785 -120 0 -120 0 0 185 0 185 119 0 118 0 7 143
c9 175 25 260 70 352 100 208 296 303 596 288 52 -3 137 -13 189 -24z m-2049
-79 c190 -23 344 -70 500 -151 127 -67 253 -156 246 -175 -4 -10 -210 -306
-231 -332 -2 -2 -33 18 -71 43 -76 53 -219 126 -310 161 -145 54 -364 72 -489
39 -115 -30 -201 -100 -241 -194 -17 -41 -18 -149 -2 -205 8 -25 31 -59 59
-87 79 -80 169 -115 584 -229 361 -99 537 -188 652 -329 101 -124 137 -237
137 -426 -1 -151 -15 -218 -74 -340 -123 -255 -392 -407 -760 -431 -114 -7
-311 8 -425 32 -187 41 -398 129 -547 230 -87 59 -188 141 -188 152 0 6 227
281 260 316 5 5 29 -8 57 -31 175 -146 377 -246 563 -279 92 -16 291 -18 362
-3 73 16 153 53 204 94 126 104 130 334 7 431 -96 75 -180 108 -472 184 -351
92 -472 137 -608 226 -102 68 -163 136 -213 239 -49 102 -63 172 -63 315 0
132 16 209 67 315 154 324 535 491 996 435z m3273 -630 c256 -21 431 -98 622
-273 l60 -54 -90 -98 c-50 -54 -113 -123 -140 -153 l-50 -55 -55 50 c-78 71
-178 137 -247 163 -74 28 -226 38 -315 21 -203 -40 -373 -213 -434 -441 -23
-88 -23 -262 0 -350 66 -248 248 -416 488 -450 86 -12 200 0 281 30 68 25 183
100 253 163 l51 46 134 -135 134 -134 -65 -65 c-35 -36 -98 -89 -140 -120
-153 -109 -285 -157 -485 -174 -328 -29 -622 76 -836 296 -178 183 -272 402
-285 663 -28 549 369 1017 906 1069 47 5 87 9 90 9 3 1 58 -3 123 -8z"/>
</g>
</svg>

