<?xml version="1.0" encoding="utf-8"?>
<!-- Generator: Adobe Illustrator 21.0.2, SVG Export Plug-In . SVG Version: 6.00 Build 0)  -->
<svg version="1.1" id="Calque_1" xmlns="http://www.w3.org/2000/svg" xmlns:xlink="http://www.w3.org/1999/xlink" x="0px" y="0px"
	 viewBox="0 0 63.9 63.9" style="enable-background:new 0 0 63.9 63.9;" xml:space="preserve">
<style type="text/css">
	.st0{fill:#00A1CD;}
</style>
<g>
	<polygon class="st0" points="61.7,53.7 48.9,53.7 48.9,51.7 59.7,51.7 59.7,2.4 2.5,2.4 2.5,0.4 61.7,0.4 	"/>
	<polygon class="st0" points="31.1,53.7 2.5,53.7 2.5,4.4 49.9,4.4 49.9,6.4 4.5,6.4 4.5,51.7 31.1,51.7 	"/>
	<rect x="51.8" y="4.4" class="st0" width="2" height="2"/>
	<rect x="55.8" y="4.4" class="st0" width="2" height="2"/>
	<path class="st0" d="M40,16.5l-6.9,14.8v32.2h2V34.5l1.9,1.9l2.9-2.9l2.9,2.9l2.2-2.2v29.4h2V31.4L40,16.5z M41.2,23.8h-2.4
		l1.2-2.6L41.2,23.8z M39.8,30.7L37,33.6l-1.8-1.8l2.8-5.9h4.3l2.7,5.7l-2,2L39.8,30.7z"/>
	<g>
		<path class="st0" d="M30.1,30H14.3V14.2h15.8V30z M16.3,28h11.8V16.2H16.3V28z"/>
		<polygon class="st0" points="21.2,25.6 18.4,22.9 19.9,21.5 21.2,22.8 24.6,19.4 26,20.8 		"/>
	</g>
	<rect x="14.3" y="9.3" class="st0" width="27.6" height="2"/>
	<g>
		<path class="st0" d="M30.1,47.8H14.3V32h15.8V47.8z M16.3,45.8h11.8V34H16.3V45.8z"/>
		<polygon class="st0" points="21.2,43.4 18.4,40.6 19.9,39.2 21.2,40.5 24.6,37.1 26,38.6 		"/>
	</g>
</g>
</svg>
