<?xml version="1.0" encoding="utf-8"?>
<!-- Generator: Adobe Illustrator 21.0.2, SVG Export Plug-In . SVG Version: 6.00 Build 0)  -->
<svg version="1.1" id="Calque_1" xmlns="http://www.w3.org/2000/svg" xmlns:xlink="http://www.w3.org/1999/xlink" x="0px" y="0px"
	 viewBox="0 0 63.9 63.9" style="enable-background:new 0 0 63.9 63.9;" xml:space="preserve">
<style type="text/css">
	.st0{fill:#FFFFFF;}
</style>
<g>
	<path class="st0" d="M60.6,52.4h-57c-1.7,0-3-1.3-3-3v-4.9h2v4.9c0,0.6,0.4,1,1,1h57c0.6,0,1-0.4,1-1v-4.9h2v4.9
		C63.6,51.1,62.3,52.4,60.6,52.4z"/>
	<polygon class="st0" points="25.3,61.2 23.3,61.2 23.3,60 25.2,51.2 25.2,50.4 27.2,50.4 27.2,51.5 25.3,60.3 	"/>
	<polygon class="st0" points="41,61.2 39,61.2 39,60.3 37,51.3 37,50.4 39,50.4 39,51.2 41,60.2 	"/>
	<rect x="20.3" y="60.2" class="st0" width="23.6" height="2"/>
	<path class="st0" d="M22.3,22.8H9.5c-1.7,0-3-1.3-3-3V5.1c0-1.7,1.3-3,3-3h11.8v4h1V22.8z M8.5,7.9v11.9c0,0.6,0.4,1,1,1h10.8V8.1
		H9.5C9.1,8.1,8.8,8,8.5,7.9z M9.5,4.1c-0.6,0-1,0.4-1,1s0.4,1,1,1h9.8v-2H9.5z"/>
	<rect x="0.7" y="60.2" class="st0" width="17.7" height="2"/>
	<path class="st0" d="M63.6,62.2H45.9v-3c0-2.2,1.7-3.9,3.9-3.9h5.9c2.2,0,3.9,1.8,3.9,3.9h-2c0-1-0.9-1.9-1.9-1.9h-5.9
		c-1,0-1.9,0.9-1.9,1.9v1h15.7V62.2z"/>
	<path class="st0" d="M40,22.8H27.2c-1.7,0-3-1.3-3-3V5.1c0-1.7,1.3-3,3-3H39v4h1V22.8z M26.2,7.9v11.9c0,0.6,0.4,1,1,1H38V8.1H27.2
		C26.8,8.1,26.5,8,26.2,7.9z M27.2,4.1c-0.6,0-1,0.4-1,1s0.4,1,1,1H37v-2H27.2z"/>
	<path class="st0" d="M57.7,22.8H44.9c-1.7,0-3-1.3-3-3V5.1c0-1.7,1.3-3,3-3h11.8v4h1V22.8z M43.9,7.9v11.9c0,0.6,0.4,1,1,1h10.8
		V8.1H44.9C44.5,8.1,44.2,8,43.9,7.9z M44.9,4.1c-0.6,0-1,0.4-1,1s0.4,1,1,1h9.8v-2H44.9z"/>
	<path class="st0" d="M22.3,45.4H9.5c-1.7,0-3-1.3-3-3V27.7c0-1.7,1.3-3,3-3h11.8v4h1V45.4z M8.5,30.5v11.9c0,0.6,0.4,1,1,1h10.8
		V30.7H9.5C9.1,30.7,8.8,30.6,8.5,30.5z M9.5,26.7c-0.6,0-1,0.4-1,1s0.4,1,1,1h9.8v-2H9.5z"/>
	<path class="st0" d="M40,45.4H27.2c-1.7,0-3-1.3-3-3V27.7c0-1.7,1.3-3,3-3H39v4h1V45.4z M26.2,30.5v11.9c0,0.6,0.4,1,1,1H38V30.7
		H27.2C26.8,30.7,26.5,30.6,26.2,30.5z M27.2,26.7c-0.6,0-1,0.4-1,1s0.4,1,1,1H37v-2H27.2z"/>
	<path class="st0" d="M57.7,45.4H44.9c-1.7,0-3-1.3-3-3V27.7c0-1.7,1.3-3,3-3h11.8v4h1V45.4z M43.9,30.5v11.9c0,0.6,0.4,1,1,1h10.8
		V30.7H44.9C44.5,30.7,44.2,30.6,43.9,30.5z M44.9,26.7c-0.6,0-1,0.4-1,1s0.4,1,1,1h9.8v-2H44.9z"/>
	<rect x="1.6" y="20.8" class="st0" width="61" height="2"/>
	<path class="st0" d="M63.7,45.5h-63V11c0-1.7,1.3-3,3-3h1v2h-1c-0.6,0-1,0.4-1,1v32.5h59V11.1c0-0.6-0.4-1-1-1h-1v-2h1
		c1.7,0,3,1.3,3,3V45.5z"/>
</g>
</svg>
