<?xml version="1.0" encoding="utf-8"?>
<!-- Generator: Adobe Illustrator 21.0.2, SVG Export Plug-In . SVG Version: 6.00 Build 0)  -->
<svg version="1.1" id="Calque_1" xmlns="http://www.w3.org/2000/svg" xmlns:xlink="http://www.w3.org/1999/xlink" x="0px" y="0px"
	 viewBox="0 0 63.9 63.9" style="enable-background:new 0 0 63.9 63.9;" xml:space="preserve">
<style type="text/css">
	.st0{fill:#FFFFFF;}
</style>
<g>
	<path class="st0" d="M32.4,63.6c-14.9,0-27.1-12.2-27.1-27.1c0-14.9,12.2-27.1,27.1-27.1c14.9,0,27.1,12.2,27.1,27.1
		C59.5,51.4,47.3,63.6,32.4,63.6z M32.4,11.4c-13.8,0-25.1,11.3-25.1,25.1c0,13.8,11.3,25.1,25.1,25.1s25.1-11.3,25.1-25.1
		C57.5,22.6,46.2,11.4,32.4,11.4z"/>
	<path class="st0" d="M32.4,10.7c-2.9,0-5.2-2.3-5.2-5.2c0-2.9,2.3-5.2,5.2-5.2c2.9,0,5.2,2.3,5.2,5.2C37.5,8.4,35.2,10.7,32.4,10.7
		z M32.4,2.3c-1.8,0-3.2,1.4-3.2,3.2c0,1.8,1.4,3.2,3.2,3.2c1.8,0,3.2-1.4,3.2-3.2C35.5,3.8,34.1,2.3,32.4,2.3z"/>
	<path class="st0" d="M32.4,20c-0.6,0-1-0.4-1-1v-4.1c0-0.6,0.4-1,1-1s1,0.4,1,1V19C33.4,19.5,32.9,20,32.4,20z"/>
	<path class="st0" d="M14.8,37.5h-4.1c-0.6,0-1-0.4-1-1s0.4-1,1-1h4.1c0.6,0,1,0.4,1,1S15.4,37.5,14.8,37.5z"/>
	<path class="st0" d="M32.4,59.1c-0.6,0-1-0.4-1-1V54c0-0.6,0.4-1,1-1s1,0.4,1,1v4.1C33.4,58.6,32.9,59.1,32.4,59.1z"/>
	<path class="st0" d="M53.9,37.5h-4.1c-0.6,0-1-0.4-1-1s0.4-1,1-1h4.1c0.6,0,1,0.4,1,1S54.5,37.5,53.9,37.5z"/>
	<path class="st0" d="M22.7,55.6c-0.2,0-0.3,0-0.5-0.1c-0.4-0.2-0.6-0.6-0.5-1.1l2.9-15.9c0.7-3.6,2.5-7,5.1-9.6l11.6-11.2
		c0.3-0.3,0.8-0.4,1.2-0.2c0.4,0.2,0.6,0.6,0.5,1.1l-2.9,15.9c-0.7,3.6-2.5,7-5.1,9.6L23.3,55.3C23.2,55.5,22.9,55.6,22.7,55.6z
		 M40.5,21.3l-9.4,9.1l0,0c-2.3,2.2-4,5.3-4.6,8.5l-2.4,12.8l9.4-9.1c2.3-2.2,4-5.3,4.6-8.5L40.5,21.3z M30.4,29.6L30.4,29.6
		L30.4,29.6z"/>
	<path class="st0" d="M37.5,40.2c-0.2,0-0.3,0-0.5-0.1l-10.2-5.4c-0.5-0.3-0.7-0.9-0.4-1.4c0.3-0.5,0.9-0.7,1.4-0.4l10.2,5.4
		c0.5,0.3,0.7,0.9,0.4,1.4C38.2,40,37.8,40.2,37.5,40.2z"/>
</g>
</svg>
