<?xml version="1.0" encoding="utf-8"?>
<!-- Generator: Adobe Illustrator 21.0.2, SVG Export Plug-In . SVG Version: 6.00 Build 0)  -->
<svg version="1.1" id="Calque_1" xmlns="http://www.w3.org/2000/svg" xmlns:xlink="http://www.w3.org/1999/xlink" x="0px" y="0px"
	 viewBox="0 0 63.9 63.9" style="enable-background:new 0 0 63.9 63.9;" xml:space="preserve">
<style type="text/css">
	.st0{fill:#00A1CD;}
</style>
<g>
	<path class="st0" d="M60.6,7.7h-4.9v2h4.9c0.6,0,1,0.4,1,1v31.6h2V10.7C63.6,9,62.3,7.7,60.6,7.7z"/>
	<path class="st0" d="M2.4,10.7c0-0.6,0.4-1,1-1h4.9v-2H3.4c-1.7,0-3,1.3-3,3v31.6h2V10.7z"/>
	<path class="st0" d="M55.7,46.2h5.9v3.9c0,0.6-0.4,1-1,1H39h-2h-9.9h-2H3.4c-0.6,0-1-0.4-1-1v-3.9h21.7v-2H0.4v5.9c0,1.7,1.3,3,3,3
		h21.5l-1.7,7.7l0,0.2h-2.9v2h23.7v-2h-3l-1.7-7.9h21.4c1.7,0,3-1.3,3-3v-5.9h-7.9V46.2z M38.9,61H25.1l1.8-7.9h10.3L38.9,61z"/>
	<path class="st0" d="M12.3,18.1l1.9,1.9l2.9-2.9L20,20l2.2-2.2v24.5h2V15l-7-14.8L10.3,15v27.3h2V18.1z M17.1,14.3l-2.9,2.9
		l-1.9-1.9l2.8-5.9h4.3l2.7,5.7L20,17.2L17.1,14.3z M17.2,4.9l1.2,2.5H16L17.2,4.9z"/>
	<rect x="32.1" y="32.3" class="st0" width="15.7" height="2"/>
	<rect x="32.1" y="28.4" class="st0" width="15.7" height="2"/>
	<rect x="32.1" y="24.5" class="st0" width="15.7" height="2"/>
	<rect x="32.1" y="20.5" class="st0" width="15.7" height="2"/>
	<path class="st0" d="M28.1,43.2c0-1.6,1.3-2.9,2.9-2.9l20.8-0.2v4.1H30.1v2h23.7v-6.1v-0.9V5.6H31.1c-2.7,0-5,2.3-5,5v35.6h2V43.2z
		 M28.1,10.6c0-1.6,1.4-3,3-3h20.7v30.5L31,38.3c-1.1,0-2.1,0.4-2.9,1V10.6z"/>
	<rect x="32.1" y="16.6" class="st0" width="15.7" height="2"/>
	<rect x="32.1" y="12.6" class="st0" width="15.7" height="2"/>
	<rect x="0.5" y="61" class="st0" width="17.7" height="2"/>
	<path class="st0" d="M47.8,60c0-1.1,0.9-2,2-2h5.9c1.1,0,2,0.9,2,2h2c0-2.2-1.8-4-4-4h-5.9c-2.2,0-4,1.8-4,4v3h17.8v-2H47.8V60z"/>
</g>
</svg>
