<?xml version="1.0" encoding="utf-8"?>
<!-- Generator: Adobe Illustrator 21.0.2, SVG Export Plug-In . SVG Version: 6.00 Build 0)  -->
<svg version="1.1" id="Calque_1" xmlns="http://www.w3.org/2000/svg" xmlns:xlink="http://www.w3.org/1999/xlink" x="0px" y="0px"
	 viewBox="0 0 63.9 63.9" style="enable-background:new 0 0 63.9 63.9;" xml:space="preserve">
<style type="text/css">
	.st0{fill:#FFFFFF;}
</style>
<g>
	<rect x="38" y="40.3" class="st0" width="18.8" height="2"/>
	<rect x="38" y="35.6" class="st0" width="18.8" height="2"/>
	<rect x="38" y="30.9" class="st0" width="18.8" height="2"/>
	<rect x="38" y="26.2" class="st0" width="18.8" height="2"/>
	<path class="st0" d="M36.8,8.7c-1.5,0-3,0.6-4.1,1.7c-0.3,0.3-0.5,0.6-0.7,0.9c-0.2-0.3-0.5-0.6-0.7-0.9c-1.1-1.1-2.5-1.7-4.1-1.7
		l-14.1,0l-12.3,0v0l-0.3,0v40.7h0l0,7h30.1l0,0.2l1.3,0l1.2,0l0-0.2h30.6l0-7.2h0V8.7L36.8,8.7z M34.2,11.8
		c0.7-0.7,1.7-1.1,2.7-1.1l24.8,0v36.6l-24.9,0.1c-1.4,0-2.7,0.5-3.7,1.4l0-34.4C33,13.4,33.4,12.5,34.2,11.8z M2.8,47.2V10.7
		l11.4,0l12.7,0c1,0,1.9,0.4,2.6,1.1c0.7,0.7,1.1,1.6,1.1,2.6l0,34.3c-1-0.8-2.2-1.3-3.5-1.3L2.8,47.2z M2.4,54.4l0-5h23.7v0l0.8,0
		c1.9,0,3.5,1.7,3.5,3.7l0,1.3H2.4z M61.6,54.4H33.1l0-1.3c0-2,1.6-3.7,3.7-3.7l24.9-0.1L61.6,54.4z"/>
	<rect x="38" y="21.5" class="st0" width="18.8" height="2"/>
	<rect x="38" y="16.8" class="st0" width="18.8" height="2"/>
	<rect x="7.3" y="40.3" class="st0" width="18.8" height="2"/>
	<rect x="7.3" y="35.6" class="st0" width="18.8" height="2"/>
	<rect x="7.3" y="30.9" class="st0" width="18.8" height="2"/>
	<rect x="7.3" y="26.2" class="st0" width="18.8" height="2"/>
	<rect x="7.3" y="21.5" class="st0" width="18.8" height="2"/>
	<rect x="7.3" y="16.8" class="st0" width="18.8" height="2"/>
</g>
</svg>
