<?xml version="1.0" encoding="utf-8"?>
<!-- Generator: Adobe Illustrator 21.0.2, SVG Export Plug-In . SVG Version: 6.00 Build 0)  -->
<svg version="1.1" id="Calque_1" xmlns="http://www.w3.org/2000/svg" xmlns:xlink="http://www.w3.org/1999/xlink" x="0px" y="0px"
	 viewBox="0 0 67 62" style="enable-background:new 0 0 67 62;" xml:space="preserve">
<style type="text/css">
	.st0{fill:#006BB6;}
</style>
<g>
	<circle class="st0" cx="26.3" cy="44.3" r="0.9"/>
	<path class="st0" d="M43.8,58.8c-0.3,0-0.5-0.1-0.7-0.3l-2-2c-0.4-0.4-0.4-1,0-1.4l2-2c0.4-0.4,1-0.4,1.4,0c0.4,0.4,0.4,1,0,1.4
		l-1.3,1.3l1.3,1.3c0.4,0.4,0.4,1,0,1.4C44.3,58.7,44,58.8,43.8,58.8z"/>
	<path class="st0" d="M42.2,45c-11.7,0-21.3-9.6-21.3-21.3c0-11.7,9.6-21.3,21.3-21.3C54,2.4,63.5,12,63.5,23.7
		C63.5,35.5,54,45,42.2,45z M42.2,4.5C31.6,4.5,23,13.1,23,23.7C23,34.3,31.6,43,42.2,43c10.6,0,19.3-8.6,19.3-19.3
		C61.5,13.1,52.9,4.5,42.2,4.5z"/>
	<path class="st0" d="M49.3,43.8v1.9c0,0.4-0.3,0.7-0.7,0.7H30.9h-8.9H4.1c-0.4,0-0.7-0.3-0.7-0.7v-3.6h28.1c-1-0.6-2-1.3-2.9-2H3.4
		V18.7c0-0.4,0.3-0.7,0.7-0.7h17.7c0.2-0.7,0.4-1.4,0.7-2H4.1c-1.5,0-2.7,1.2-2.7,2.7v27c0,1.5,1.2,2.7,2.7,2.7h16.8v4.5h-6.2
		c-0.6,0-1,0.5-1,1v3.8c0,0.6,0.5,1,1,1h23.4c0.6,0,1-0.5,1-1v-3.8c0-0.6-0.5-1-1-1h-6.2v-4.5h16.7c1.5,0,2.7-1.2,2.7-2.7V43
		C50.7,43.3,50,43.6,49.3,43.8z M23,48.4h6.9v4.5H23V48.4z M37.1,54.9v1.8H15.7v-1.8h6.2h8.9H37.1z"/>
	<path class="st0" d="M50.9,38.2L50.9,38.2c-1.6,0-3.1-0.6-4.3-1.8c-1.4-1.4-2-3.4-1.7-5.3l-9.6-9.6c-0.3,0.1-0.7,0.1-1,0.1
		c-1.6,0-3.1-0.6-4.3-1.8c-1.6-1.6-2.2-4.1-1.4-6.3c0.1-0.3,0.4-0.6,0.7-0.7c0.3-0.1,0.7,0,0.9,0.3l2.4,2.4l1.5,0l0.1-1.7L32,11.5
		c-0.2-0.2-0.4-0.6-0.3-0.9c0.1-0.3,0.3-0.6,0.7-0.7c0.6-0.2,1.3-0.3,2-0.3c1.6,0,3.1,0.6,4.3,1.8c1.4,1.4,2,3.4,1.7,5.3l9.6,9.6
		c1.9-0.3,3.9,0.3,5.3,1.7c1.7,1.7,2.2,4.1,1.4,6.3c-0.1,0.3-0.4,0.6-0.7,0.7c-0.3,0.1-0.7,0-0.9-0.3l-2.4-2.4l-1.5,0l-0.1,1.7
		l2.4,2.4c0.2,0.2,0.4,0.6,0.3,0.9c-0.1,0.3-0.3,0.6-0.7,0.7C52.3,38.1,51.6,38.2,50.9,38.2z M35.7,19.4c0.3,0,0.5,0.1,0.7,0.3
		l10.4,10.4c0.3,0.3,0.4,0.6,0.3,1c-0.4,1.4,0,2.9,1,3.9c0.6,0.6,1.4,1,2.3,1.1l-1.2-1.2c-0.2-0.2-0.3-0.5-0.3-0.8l0.3-3
		c0-0.5,0.5-0.9,1-0.9l2.9-0.1c0.3,0,0.5,0.1,0.7,0.3l1.3,1.3c-0.1-0.9-0.5-1.7-1.1-2.3c-1-1-2.5-1.4-3.9-1c-0.4,0.1-0.7,0-1-0.3
		L38.5,17.6c-0.3-0.3-0.4-0.6-0.3-1c0.4-1.4,0-2.9-1-3.9c-0.6-0.6-1.4-1-2.3-1.1l1.3,1.3c0.2,0.2,0.3,0.5,0.3,0.8l-0.3,3
		c0,0.5-0.5,0.9-1,0.9l-2.9,0.1c-0.3,0-0.6-0.1-0.8-0.3l-1.3-1.3c0.1,0.9,0.5,1.7,1.1,2.3c1,1,2.5,1.4,3.9,1
		C35.5,19.5,35.6,19.4,35.7,19.4z"/>
	<path class="st0" d="M56.7,13l-3-3c-0.2-0.2-0.5-0.3-0.8-0.3c-0.3,0-0.6,0.2-0.8,0.5L49.8,14c-0.2,0.4-0.2,0.9,0.2,1.3l0,0
		L38.1,27.1c-0.7-0.4-1.4-0.7-2-0.7c-0.6,0-1.1,0.2-1.4,0.6l0,0l-5.6,5.6c-0.9,0.9-0.4,2.5,1.1,4c1,1,2,1.5,2.8,1.5
		c0.4,0,0.8-0.1,1.1-0.4l5.6-5.6l0,0h0c0.8-0.8,0.7-2.2-0.1-3.5l11.8-11.8l0,0c0.2,0.2,0.5,0.3,0.7,0.3c0.2,0,0.4,0,0.5-0.2l3.9-2.4
		c0.3-0.2,0.4-0.4,0.5-0.8C57.1,13.5,57,13.2,56.7,13z M38.3,30.5L38.3,30.5c-0.3,0-0.8-0.2-1.4-0.8c-0.6-0.6-0.8-1.2-0.8-1.3h0
		c0.3,0,0.8,0.2,1.4,0.7C38.1,29.8,38.3,30.4,38.3,30.5z M32.9,36c-0.2-0.1-0.7-0.3-1.3-0.9c-0.5-0.5-0.8-1-0.9-1.3l3.8-3.8
		c0.2,0.4,0.5,0.8,0.9,1.2c0.4,0.4,0.8,0.7,1.2,0.9L32.9,36z M52.3,14.8l-0.2-0.2l0,0h0l-0.2-0.2l1.3-2.1l1.2,1.2L52.3,14.8z"/>
	<path class="st0" d="M64.1,38.1c-0.6,0-1,0.5-1,1c0,0.6,0.5,1,1,1c0.6,0,1-0.5,1-1v0C65.1,38.5,64.6,38.1,64.1,38.1z"/>
	<path class="st0" d="M56.6,51.8c-0.5,0.3-0.6,1-0.2,1.4c0.2,0.3,0.5,0.4,0.8,0.4c0.2,0,0.4-0.1,0.6-0.2c0,0,0,0,0,0
		c0.5-0.3,0.5-1,0.2-1.4C57.7,51.6,57,51.5,56.6,51.8z"/>
	<path class="st0" d="M60.3,48.1c-0.5,0.3-0.6,1-0.2,1.4c0.2,0.3,0.5,0.4,0.8,0.4c0.2,0,0.4-0.1,0.6-0.2c0,0,0,0,0.1,0
		c0.5-0.3,0.5-1,0.2-1.4C61.4,47.9,60.7,47.8,60.3,48.1z"/>
	<path class="st0" d="M52.2,54C52.2,54,52.2,54,52.2,54c-0.6,0.2-0.9,0.8-0.7,1.3c0.1,0.4,0.5,0.7,1,0.7c0.1,0,0.2,0,0.3-0.1l0,0
		c0.5-0.2,0.8-0.7,0.7-1.3C53.4,54.1,52.8,53.8,52.2,54z"/>
	<path class="st0" d="M63.6,43.3c-0.5-0.2-1.1,0.1-1.3,0.6c-0.2,0.5,0.1,1.1,0.6,1.3c0.1,0,0.2,0.1,0.3,0.1c0.4,0,0.8-0.3,1-0.7
		c0,0,0-0.1,0-0.1C64.4,44,64.1,43.5,63.6,43.3z"/>
	<path class="st0" d="M47.4,54.8c-0.6,0-1,0.5-1,1c0,0.6,0.5,1,1,1h0c0.6,0,1-0.5,1-1C48.4,55.2,47.9,54.8,47.4,54.8z"/>
</g>
</svg>
