<?xml version="1.0" encoding="utf-8"?>
<!-- Generator: Adobe Illustrator 21.0.2, SVG Export Plug-In . SVG Version: 6.00 Build 0)  -->
<svg version="1.1" id="Calque_1" xmlns="http://www.w3.org/2000/svg" xmlns:xlink="http://www.w3.org/1999/xlink" x="0px" y="0px"
	 viewBox="0 0 63.9 63.9" style="enable-background:new 0 0 63.9 63.9;" xml:space="preserve">
<style type="text/css">
	.st0{fill:#FFFFFF;}
</style>
<g>
	<path class="st0" d="M60.4,41.5c3-4.9,4.2-10.4,3-14.4c-0.6-2.1-1.9-3.6-3.5-4.4c-1.9-0.9-4.4-0.8-7,0.3C52.3,22,52,20.8,52,19
		c0-2.6,0.6-4.1,1.4-5.8c1-2.5,2.2-5.3,1.9-11.7c0-0.3-0.2-0.6-0.5-0.8c-0.3-0.2-0.6-0.2-0.9-0.1c-3.3,1.4-6.5,2.6-9.7,3.5
		C39.8,5.3,35.7,5.9,32,5.9c-3.7,0-7.8-0.6-12.1-1.8c-3.2-0.9-6.4-2-9.7-3.5C9.9,0.5,9.5,0.5,9.3,0.7C9,0.9,8.8,1.2,8.8,1.5
		c-0.2,3.3,0.7,6.3,1.6,9.1C11.2,13.3,12,16,12,19c0,1.8-0.3,3-0.7,3.9c-2.6-1-5.1-1.1-7-0.3c-1.7,0.8-2.9,2.3-3.5,4.4
		c-1.2,4-0.1,9.5,3,14.4c2.1,3.5,4.9,6.3,7.9,8.2c-2.7,0.3-4.9,3-4.9,6.4c0,3.6,2.4,6.5,5.3,6.5h45.5c0.6,0,1-0.4,1-1s-0.4-1-1-1
		c-1.8,0-3.3-2-3.3-4.5c0-2.4,1.5-4.5,3.3-4.5c0.6,0,1-0.4,1-1s-0.4-1-1-1h-5.1C55.5,47.8,58.2,45,60.4,41.5z M10.8,3.1
		c2.9,1.2,5.8,2.2,8.6,3c4.5,1.2,8.8,1.9,12.7,1.9c3.9,0,8.1-0.6,12.7-1.9c2.8-0.8,5.7-1.8,8.6-3c0.1,4.9-0.9,7.2-1.8,9.4
		C50.8,14.3,50,16,50,19c0,3.7,1.2,5.5,2.3,7.1c1,1.4,1.9,2.7,1.9,5.5c0,4.9-5.7,18-10.2,18c-0.1,0-0.1,0-0.2,0h-23
		c-0.1,0-0.1,0-0.2,0c-4.6,0-10.7-13.2-10.7-18c0-2.8,0.9-4.1,1.9-5.5c1.1-1.6,2.3-3.3,2.3-7.1c0-3.4-0.9-6.2-1.7-9
		C11.5,7.7,10.9,5.5,10.8,3.1z M5.4,40.5C2.6,36,1.6,31.1,2.6,27.7c0.3-1.1,1-2.5,2.5-3.1c1.3-0.6,3.1-0.5,5.2,0.2
		c-0.1,0.1-0.1,0.2-0.2,0.3c-1,1.5-2.2,3.2-2.2,6.7c0,4.1,3.8,13.8,8.5,18h-0.8c-0.1-0.2-0.3-0.3-0.5-0.4
		C11.5,47.8,7.9,44.6,5.4,40.5z M52.8,53.4H33c-0.6,0-1,0.4-1,1s0.4,1,1,1h19.3c0,0.2-0.1,0.5-0.1,0.7c0,0.2,0,0.5,0.1,0.7h-8.4
		c-0.6,0-1,0.4-1,1s0.4,1,1,1h8.9c0.2,0.6,0.6,1.2,1,1.8H12c-1.8,0-3.3-2-3.3-4.5c0-2.4,1.5-4.5,3.3-4.5h41.7
		C53.4,52.2,53,52.8,52.8,53.4z M49,49.3c-0.2,0.1-0.4,0.2-0.5,0.4h-0.4c4.6-4.3,8.1-14.3,8.1-18c0-3.5-1.2-5.2-2.2-6.7
		c-0.1-0.1-0.1-0.2-0.2-0.3c2-0.7,3.8-0.8,5.2-0.2c1.5,0.7,2.1,2.1,2.5,3.1c1,3.5,0,8.4-2.7,12.8C56.1,44.6,52.5,47.8,49,49.3z"/>
	<path class="st0" d="M25,24.9c0.7,0,1.3-0.1,2-0.3l4.4,4.9c0.2,0.2,0.5,0.3,0.7,0.3s0.6-0.1,0.7-0.3l4.4-4.9c0.6,0.2,1.3,0.3,2,0.3
		c4.3,0,7.8-3.4,7.8-7.7c0-4.2-3.5-7.7-7.8-7.7c-2.9,0-5.5,1.6-6.8,4l-0.3,0l-0.3,0c-1.3-2.4-3.9-4-6.8-4c-4.3,0-7.8,3.4-7.8,7.7
		C17.2,21.5,20.7,24.9,25,24.9z M32.1,27.3l-3.2-3.5c1.4-0.8,2.5-2,3.2-3.5c0.7,1.5,1.8,2.7,3.2,3.5L32.1,27.3z M39.2,22.9
		c-3.2,0-5.8-2.5-5.8-5.7c0-0.6,0.1-1.3,0.3-1.8l4.5-0.4c-0.9,0.4-1.5,1.2-1.5,2.2c0,1.3,1.1,2.4,2.5,2.4c1.4,0,2.5-1.1,2.5-2.4
		c0-1.2-0.8-2.1-1.9-2.4l4.5-0.4c0.5,0.8,0.7,1.8,0.7,2.8C45,20.3,42.4,22.9,39.2,22.9z M39.2,11.5c1.2,0,2.4,0.4,3.3,1L35,13.3
		C36.1,12.2,37.6,11.5,39.2,11.5z M29.1,13.3l-7.5-0.7c0.9-0.7,2.1-1,3.3-1C26.6,11.5,28.1,12.2,29.1,13.3z M19.9,14.4l4.5,0.4
		c-1.1,0.2-1.9,1.2-1.9,2.4c0,1.3,1.1,2.4,2.5,2.4s2.5-1.1,2.5-2.4c0-1-0.6-1.9-1.5-2.2l4.5,0.4c0.2,0.6,0.3,1.2,0.3,1.8
		c0,3.1-2.6,5.7-5.8,5.7c-3.2,0-5.8-2.5-5.8-5.7C19.2,16.2,19.5,15.3,19.9,14.4z"/>
</g>
</svg>
