<?xml version="1.0" encoding="utf-8"?>
<!-- Generator: Adobe Illustrator 21.0.2, SVG Export Plug-In . SVG Version: 6.00 Build 0)  -->
<svg version="1.1" id="Calque_1" xmlns="http://www.w3.org/2000/svg" xmlns:xlink="http://www.w3.org/1999/xlink" x="0px" y="0px"
	 viewBox="0 0 63.9 63.9" style="enable-background:new 0 0 63.9 63.9;" xml:space="preserve">
<style type="text/css">
	.st0{fill:#FFFFFF;}
</style>
<path class="st0" d="M54.4,9.7c-5.9-5.9-13.8-9.2-22.2-9.2S15.9,3.8,10,9.7C0.3,19.4-2,34.5,4.4,46.6l0.2,0.3L0.7,63.5l16.6-3.9
	l0.3,0.2c4.5,2.4,9.6,3.6,14.6,3.6c8.4,0,16.3-3.3,22.2-9.2s9.2-13.8,9.2-22.2C63.6,23.5,60.4,15.6,54.4,9.7z M36.5,28.9l-4.2,14.9
	c-0.2,0.7-0.1,1.4,0.3,1.9c0.3,0.6,0.9,1,1.6,1.1c0.6,0.1,0.9,0.4,1,1c0.1,0.5,0,1.3-0.8,2.4c-1.7,2-3.9,3.2-6,3.2
	c-1.5,0-2.8-0.6-3.6-1.6c-0.7-0.9-0.9-2.1-0.5-3.3l4.2-14.9c0.2-0.7,0.1-1.4-0.3-1.9c-0.3-0.6-0.9-1-1.6-1.1c-0.6-0.1-0.9-0.4-1-1
	c-0.1-0.7,0.1-1.5,0.8-2.4c1.7-2.1,3.8-3.2,5.9-3.2c1.5,0,2.8,0.6,3.6,1.6C36.6,26.5,36.8,27.7,36.5,28.9z M35.6,21.4
	c-2.8,0-5.1-2.3-5.1-5.1s2.3-5.1,5.1-5.1s5.1,2.3,5.1,5.1C40.7,19.2,38.4,21.4,35.6,21.4z"/>
</svg>
